General
Complete name                            : Max Stardust Awards 2012--26th February 2012--XviD--HQ--.avi
Format                                   : AVI
Format/Info                              : Audio Video Interleave
File size                                : 2.39 GiB
Duration                                 : 2h 49mn
Overall bit rate                         : 2 013 Kbps
Writing library                          : Boilsoft AVI tool build 1/release

Video
ID                                       : 0
Format                                   : MPEG-4 Visual
Format profile                           : Advanced Simple@L5
Format settings, BVOP                    : 2
Format settings, QPel                    : No
Format settings, GMC                     : No warppoints
Format settings, Matrix                  : Default (MPEG)
Muxing mode                              : Packed bitstream
Codec ID                                 : XVID
Codec ID/Hint                            : XviD
Duration                                 : 2h 49mn
Bit rate                                 : 1 876 Kbps
Width                                    : 512 pixels
Height                                   : 384 pixels
Display aspect ratio                     : 4:3
Frame rate                               : 25.000 fps
Color space                              : YUV
Chroma subsampling                       : 4:2:0
Bit depth                                : 8 bits
Scan type                                : Progressive
Compression mode                         : Lossy
Bits/(Pixel*Frame)                       : 0.382
Stream size                              : 2.23 GiB (93%)
Writing library                          : XviD 1.2.1 (UTC 2008-12-04)

Audio
ID                                       : 1
Format                                   : MPEG Audio
Format version                           : Version 1
Format profile                           : Layer 3
Mode                                     : Joint stereo
Mode extension                           : MS Stereo
Codec ID                                 : 55
Codec ID/Hint                            : MP3
Duration                                 : 2h 49mn
Bit rate mode                            : Constant
Bit rate                                 : 128 Kbps
Channel(s)                               : 2 channels
Sampling rate                            : 44.1 KHz
Compression mode                         : Lossy
Stream size                              : 155 MiB (6%)
Alignment                                : Split accross interleaves
Interleave, duration                     : 40 ms (1.00 video frame)
Interleave, preload duration             : 500 ms

 
http://img195.imageshack.us/img195/5406/18684307.jpg 
http://img822.imageshack.us/img822/2403/49087410.jpg 
http://img705.imageshack.us/img705/6937/79350891.jpg 
http://img190.imageshack.us/img190/5972/43031899.jpg 
http://img714.imageshack.us/img714/5807/54770575.jpg 
http://img836.imageshack.us/img836/1920/76956332.jpg 
http://img140.imageshack.us/img140/3621/71386299.jpg